<?xml version="1.0" ?><!DOCTYPE svg  PUBLIC '-//W3C//DTD SVG 1.1//EN'  'http://www.w3.org/Graphics/SVG/1.1/DTD/svg11.dtd'><svg height="512px" style="enable-background:new 0 0 512 512;" version="1.1" viewBox="0 0 512 512" width="512px" xml:space="preserve" xmlns="http://www.w3.org/2000/svg" xmlns:xlink="http://www.w3.org/1999/xlink"><g id="_x33_26_x2C__Nature_x2C__hill_x2C__landscape_x2C__mountain_x2C__scene"><g><path d="M202.642,325.268l-0.039-0.103l-0.021-0.062l-3.576-8.833    c-0.246-0.638-0.225-1.377,0.105-2.054c0.288-0.576,0.758-0.986,1.292-1.191l-2.4-5.958c-0.126-0.329-0.186-0.698-0.165-1.068    l-3.843-9.511c-7.128-3.102-8.503-6.82-10.374-12.88c-1.888,6.184-2.976,9.306-10.536,12.839l-3.864,9.572    c0.021,0.37-0.042,0.74-0.186,1.09l-2.485,6.182c1.274,0.514,1.913,1.993,1.376,3.268l-3.636,9.018l0.084,0.02    c1.295,0.535,1.93,1.992,1.396,3.288l-3.597,8.915c14.154-6.061,28.329-6.964,42.546-0.432l-3.492-8.669    c-0.33-0.679-0.33-1.499,0.018-2.198C201.554,325.904,202.069,325.473,202.642,325.268 M280.395,318.365    c7.991-0.349,14.256,0.555,20.502,1.418c5.813,0.821,11.606,1.644,18.59,1.396h0.039c6.556-0.227,11.711-0.76,16.354-1.232    c10.086-1.027,17.951-1.849,33.769,0.965l0.144,0.021c7.581,1.294,13.95,1.951,20.316,2.26c4.724,0.205,9.451,0.246,14.648,0.185    c-1.685-1.726-3.33-3.472-4.931-5.259l-1.028-1.15l-0.06-0.062l-0.021-0.021l-0.617-0.678l-0.123-0.123    c-0.719-0.822-1.396-1.645-2.031-2.445l-0.063-0.061l-0.081-0.083c-1.48-1.808-2.938-3.656-4.376-5.587l-0.021-0.041    c-3.716-5.219-6.472-9.389-8.791-12.9c-2.036-3.123-3.737-5.691-5.565-8.115c-3.844-4.744-7.561-8.441-11.322-11.709    c-2.506-2.136-5.482-4.539-9.139-7.332l-0.063-0.041c-6.078-4.603-10.229-7.972-14.192-11.586l-1.112-1.027l-0.183-0.164    l-0.042-0.063c-1.888-1.746-3.839-3.615-5.854-5.711c-0.144-0.123-0.266-0.287-0.389-0.473c-1.583-1.622-3.268-3.409-5.156-5.423    l-0.33-0.41l-11.914-19.536c-5.812-9.51-6.243-10.907-8.3-18.057l-1.601-5.422c-3.187-9.984-7.809-14.195-12.101-18.098    c-3.903-3.555-7.602-6.902-10.146-13.579l-1.562-4.375c-2.015-5.834-4.008-11.565-7.787-16.413    c-2.545-3.307-4.868-5.711-7.128-8.031c-3.594-3.699-7.044-7.252-11.217-14.031l-0.635-1.068    c-6.759,10.066-13.722,16.311-20.376,22.268c-9.265,8.3-17.912,16.043-24.201,33.401c-4.106,11.36-9.511,17.071-15.014,22.822    l-0.123,0.144c-6.657,6.965-13.456,14.072-17.913,32.785l-0.288,1.172c-0.804,3.348-1.685,7.004-2.776,10.579    c0.126,2.136-1.271,5.278-3.204,8.505l-0.144,0.225c-0.348,0.72-0.72,1.418-1.088,2.075c-0.863,1.499-2.383,3.45-4.253,5.628    c-1.067,1.336-1.99,2.445-2.667,3.123c-2.59,2.691-5.815,5.854-9.244,8.813l-0.474,0.41l-0.165,0.145l-0.042,0.021    c-3.183,2.772-6.142,5.053-8.174,6.183c-2.179,1.191-4.109,2.26-5.854,3.268c-8.918,5.525-15.47,11.708-22.022,18.261l0,0    c-1.849,1.952-3.699,3.8-5.545,5.608l-0.021,0.02l-0.207,0.206l-0.039,0.041l-0.186,0.164c-3.987,3.985-8.216,8.073-13.21,12.243    l-2.67,2.321l-1.376,1.233c12.859-2.568,18.878-2.547,33.853-2.508l2.488,0.021c5.401,0,10.434-0.123,15.323-0.328    c4.253-0.186,8.524-0.453,12.88-0.761l1.13-2.772c-0.533-0.206-1.007-0.597-1.295-1.15c-0.348-0.679-0.369-1.438-0.102-2.115    l3.983-9.861c-0.018-0.391,0.042-0.76,0.186-1.109l4.745-11.75c0.267-0.637,0.74-1.109,1.337-1.355    c6.468-2.875,7.229-5.32,8.813-10.518c0.593-1.932,1.274-4.19,2.341-6.964c0.512-1.294,1.972-1.951,3.267-1.438    c0.678,0.247,1.19,0.802,1.436,1.438c0.969,2.526,1.646,4.704,2.239,6.614c1.625,5.301,2.569,8.402,8.63,10.826    c0.677,0.267,1.168,0.78,1.417,1.396l4.766,11.771c0.123,0.349,0.183,0.72,0.162,1.089l3.986,9.861    c0.513,1.293-0.102,2.752-1.375,3.286l0.902,2.259l2.569,0.205c7.047,0.535,14.154,1.09,21.713,1.15l5.219-0.04l3.243-0.144    l1.646-4.089c-0.021-0.39,0.039-0.76,0.183-1.108l4.745-11.75c0.271-0.637,0.741-1.109,1.337-1.355    c6.471-2.877,7.229-5.32,8.812-10.519c0.597-1.931,1.274-4.19,2.34-6.964c0.517-1.294,1.973-1.951,3.268-1.458    c0.678,0.267,1.19,0.821,1.439,1.458c0.986,2.527,1.643,4.705,2.238,6.615c1.622,5.3,2.565,8.401,8.627,10.826    c0.677,0.266,1.172,0.779,1.418,1.396l4.766,11.771C280.331,318.058,280.373,318.201,280.395,318.365z M276.246,322.022    l-0.021-0.063l-0.042-0.062l-0.021-0.061l-0.902-2.281c-0.144-0.328-0.207-0.698-0.186-1.067l-3.843-9.512    c-7.128-3.102-8.504-6.819-10.371-12.88c-1.892,6.184-2.979,9.306-10.539,12.839l-3.864,9.573    c0.021,0.369-0.018,0.739-0.161,1.088l-2.509,6.184c1.274,0.514,1.913,1.992,1.4,3.267l-3.657,9.018l0.081,0.021    c1.295,0.514,1.931,1.993,1.397,3.287l-3.594,8.915c14.154-6.06,28.325-6.964,42.542-0.432l-3.492-8.669    c-0.33-0.678-0.33-1.499,0.039-2.197c0.287-0.596,0.804-1.027,1.379-1.232l-3.618-8.998c-0.267-0.637-0.246-1.377,0.084-2.054    c0.288-0.575,0.758-0.986,1.295-1.213L276.246,322.022z M82.452,303.74c-3.843-1.686-7.703-2.691-11.546-3.102v7.846    c0,1.377-1.126,2.527-2.523,2.527h-4.686c-1.396,0-2.527-1.15-2.527-2.527v-7.641c-3.902,0.574-7.826,1.705-11.75,3.328    l-0.123,0.04l-0.267,0.104l-0.288,0.122l-0.021,0.021l-0.246,0.102l-0.453,0.207l-0.081,0.02l-0.271,0.124l-0.267,0.122    l-0.06,0.042l-0.228,0.081l-0.267,0.124l-0.204,0.103l-0.063,0.041l-0.267,0.123l-0.267,0.124l-0.102,0.041l-0.165,0.103    l-0.288,0.123l-0.225,0.124l-0.042,0.021l-0.267,0.123l-0.267,0.143l-0.123,0.063l-0.144,0.082l-0.288,0.144l-0.267,0.144h-0.021    l-0.042,0.021l0,0l-0.021,0.021H43.77l-0.021,0.021h-0.018l-0.021,0.021h-0.021h-0.021l-0.021,0.021h-0.021l-0.021,0.021h-0.018    h-0.021l-0.021,0.021h-0.021h-0.021l-0.021,0.02h-0.018h-0.021l-0.021,0.021h-0.021H43.38l-0.042,0.021l0,0h-0.018h-0.042v0.021    h-0.021h-0.042l0,0h-0.039l-0.021,0.021l0,0h-0.042l0,0h-0.021l0,0l-0.042,0.021l0,0h-0.039h-0.021l0,0h-0.042h-0.021h-0.039    l-0.021,0.021h-0.021h-0.021h-0.021h-0.021h-0.039l0,0h-0.021h-0.042l0,0H42.64h-0.018l0,0H42.58l-0.063-0.021h-0.021h-0.018    h-0.021h-0.021h-0.021h-0.042l0,0h-0.039l-0.021-0.021l0,0h-0.042H42.25l0,0l-0.042-0.021h-0.018h-0.021h-0.021h-0.021    l-0.021-0.021h-0.021h-0.021l-0.018-0.021h-0.021h-0.021l-0.042-0.021h-0.021l-0.039-0.02h-0.042l-0.021-0.021h-0.042v-0.021    H41.78l-0.063-0.021c-2.074,2.589-3.944,4.848-5.977,7.066c-2.713,2.979-5.692,5.937-9.739,9.655    c8.689,0.637,14.585,2.443,20.13,4.148c9.1,2.795,17.235,5.32,36.4,1.109c0.351-0.082,0.741-0.226,1.151-0.391    c0.33-0.268,0.74-0.554,1.193-0.842c0.758-0.514,1.846-1.253,2.976-2.156c5.527-4.479,10.623-8.793,15.571-13.312    c2.074-1.911,4.131-3.821,6.163-5.813l0.144-0.145l0.084-0.082l2.688-2.711l2.734-2.752l0.144-0.145    c0.863-0.883,1.723-1.809,2.586-2.732c4.766-5.135,8.381-8.401,12.325-11.216c2.485-1.767,5.033-3.328,8.055-5.053    c1.354-0.822,2.772-1.644,4.25-2.466h0.021c2.878-1.541,5.998-3.883,9.02-6.45c1.685-1.458,3.45-3.102,5.176-4.765    c2.485-2.404,4.868-4.891,6.777-7.088c1.523-1.951,3.331-4.458,4.808-6.881c0.842-1.727,1.583-3.596,2.239-5.567    c-0.33,0.719-0.986,1.294-1.808,1.438c-0.618,0.144-1.316,0.164-1.93,0.266c-2.404,0.309-4.685,0.617-5.998,0.411    c-2.692-0.39-21.531-14.276-30.631-20.993l-4.211-3.082c-1.909-1.375-3.243-2.465-4.25-3.266    c-1.007-0.822-0.432-1.459-0.944-1.377c0.06,0.411,0.018,0.822-0.144,1.213l-0.084,0.226c-0.635,1.294-1.499,3.04-2.73,5.136    l-0.021,0.041c-2.958,4.848-8.753,13.27-14.564,20.625c-4.313,5.422-8.647,10.311-11.957,12.816l-5.443,3.945l-3.408,2.383    l1.169,2.938h0.021v0.02v0.021c0.123,0.309,0.186,0.637,0.165,0.965l3.552,8.771v0.041l0.021,0.021l0,0l0.021,0.041v0.021v0.021    l0.021,0.02v0.041L87.505,281v0.02v0.021v0.021l0.021,0.021v0.041l0,0v0.021l0.021,0.04l0,0v0.042l0,0v0.041l0.018,0.021v0.063    v0.02l0.021,0.041l0,0v0.021v0.041l0,0v0.042l0,0v0.02v0.041l0,0v0.041v0.021v0.021v0.021v0.021v0.021v0.041l0,0v0.041l0,0v0.041    v0.021l0,0v0.042v0.02v0.021v0.041v0.02l-0.021,0.021v0.021v0.042l0,0v0.021v0.02v0.021l0,0l-0.018,0.041l0,0l-0.021,0.062v0.021    l-0.021,0.102l0,0v0.021v0.021l-0.063,0.165l0,0l-0.021,0.04l-0.018,0.063l0,0l-0.021,0.04v0.021l-0.042,0.103h-0.021    l-0.021,0.041l0,0l-0.018,0.042l0,0l-0.021,0.02v0.041l-0.021,0.041h-0.021l-0.021,0.021v0.042h-0.021l-0.039,0.082h-0.021    l-0.063,0.082v0.021l-0.021,0.04l-0.021,0.021l-0.018,0.02h-0.021l-0.021,0.041l0,0l-0.042,0.021v0.021l-0.042,0.041l0,0    l-0.039,0.042l0,0l-0.021,0.02l-0.021,0.021l-0.021,0.021l-0.021,0.021l0,0l-0.039,0.021l0,0l-0.021,0.041h-0.021l-0.021,0.021    l-0.021,0.02l-0.039,0.021l-0.021,0.02H86.54l-0.021,0.021l0,0l-0.042,0.041l0,0h-0.021l-0.018,0.021h-0.021v0.021l-0.042,0.021    l0,0l-0.042,0.021h-0.021v0.02l-0.039,0.021l3.12,7.744c0.144,0.287,0.228,0.596,0.249,0.924l0,0    c0.039,0.514-0.084,1.027-0.372,1.5c-0.246,0.411-0.614,0.739-1.024,0.945l3.45,8.565l0.021,0.021l0.021,0.041l0,0v0.042    l0.021,0.021l0,0v0.02v0.021h0.018v0.02v0.041l0.021,0.021v0.021v0.021v0.021l0.021,0.021v0.021v0.021v0.041h0.021v0.021v0.041    l0,0l0.021,0.041l0,0v0.021l0,0v0.041v0.021v0.021v0.041h0.021v0.021v0.041l0,0v0.041v0.041l0,0v0.02v0.021v0.021v0.041l0,0v0.04    v0.021v0.041v0.021v0.021v0.041l0,0v0.021v0.041l0,0v0.04l-0.021,0.021v0.021v0.021v0.021v0.021v0.04l0,0l-0.021,0.041v0.021l0,0    v0.041l-0.021,0.021v0.021v0.041l0,0l-0.021,0.02v0.041l0,0v0.042l-0.021,0.021l-0.018,0.041l0,0v0.041l-0.021,0.021v0.02v0.021    l-0.021,0.021v0.021l-0.021,0.042l0,0v0.041h-0.021v0.02l-0.021,0.041l0,0l-0.021,0.041v0.021l0,0l-0.017,0.041h-0.021v0.041    l-0.021,0.02l0,0l-0.021,0.041v0.021h-0.021l-0.021,0.041l0,0l-0.021,0.063l0,0l-0.039,0.041l0,0l-0.042,0.04v0.021l-0.021,0.042    h-0.021l-0.021,0.04l-0.018,0.021l-0.021,0.041l-0.042,0.041l-0.021,0.021l-0.021,0.021l-0.021,0.021l-0.018,0.021l-0.021,0.021    l-0.021,0.021l-0.021,0.02l-0.021,0.021l-0.021,0.021l-0.018,0.041H91.04l-0.042,0.021l-0.021,0.021l-0.021,0.021l-0.021,0.021    l-0.018,0.02l-0.021,0.021l-0.042,0.02l-0.021,0.021l-0.021,0.021H90.79l-0.039,0.042H90.73l-0.021,0.021l-0.021,0.02    l-0.042,0.021h-0.018l-0.042,0.02v0.021l-0.042,0.02h-0.021l-0.039,0.021h-0.021l-0.042,0.041l0,0l-0.06,0.021l0,0l-0.063,0.021    l-0.042,0.021l0,0h-0.021l-0.039,0.021l0,0l-0.042,0.02h-0.021h-0.021l-0.021,0.021h-0.018h-0.021l-0.042,0.021l0,0h-0.042l0,0    l-0.039,0.021h-0.021l0,0h-0.042h-0.021l-0.021,0.021h-0.039l0,0h-0.021l-0.042,0.021l0,0h-0.042H89.66h-0.018h-0.042l0,0H89.58    l-0.042,0.021l0,0h-0.039h-0.021h-0.021h-0.021h-0.081h-0.042h-0.021h-0.021h-0.06l-0.042-0.021l0,0h-0.042h-0.021l0,0h-0.039l0,0    h-0.042h-0.042v-0.021h-0.021h-0.018h-0.021l-0.084-0.021h-0.018l0,0l-0.042-0.021h-0.021h-0.021l-0.021-0.021h-0.021h-0.018    l-0.042-0.021l0,0h-0.042h-0.021v-0.02h-0.039h-0.021v-0.021l-0.144-0.041l-0.021-0.021h-0.021l-0.021-0.021h-0.021h-0.021    l-0.018-0.021l-0.021-0.021h-0.021l-0.021-0.02h-0.021l-0.021-0.021l-0.018-0.02l0,0l-0.042-0.021H88.06h-0.021l-0.144-0.103    l-0.144-0.081l-0.165-0.104l-0.165-0.082l-0.06-0.062l-0.081-0.041l-0.165-0.083l-0.144-0.103l-0.165-0.081l-0.123-0.083    l-0.021-0.021l-0.165-0.082l-0.165-0.082l-0.144-0.082l-0.165-0.082l-0.039-0.041l-0.105-0.063l-0.161-0.082l-0.144-0.082    l-0.165-0.082l0,0l-0.309-0.164l-0.165-0.082l-0.144-0.083l-0.165-0.062l-0.018-0.02l-0.126-0.063l-0.162-0.082l-0.144-0.082    l-0.165-0.082l-0.102-0.041l-0.063-0.021l-0.144-0.081l-0.165-0.063l-0.309-0.164l0,0l-0.614-0.267l-0.084-0.041L82.452,303.74z     M370.367,213.622l-0.08-0.083l-0.084-0.081l-0.039-0.063l-0.309-0.349l-0.063-0.063l-0.038-0.041l-0.043-0.04l-0.063-0.083    l-0.018-0.021l0,0l-0.165-0.185l-0.021-0.041l-0.064-0.062l-0.038-0.041l-0.042-0.041l-0.063-0.083l-0.021-0.02l-0.162-0.186    l-0.021-0.041l-0.063-0.062l-0.039-0.062l-0.041-0.041l-0.166-0.186l0,0l-0.102-0.123l-0.063-0.082l-0.043-0.041l-0.038-0.041    l-0.063-0.082l-0.021-0.02l-0.161-0.207l-0.021-0.02l-0.063-0.063l-0.042-0.061l-0.039-0.041l-0.063-0.083l-0.021-0.021    l-0.08-0.102l0,0l-0.084-0.104l-0.018-0.021l-0.063-0.082l-0.042-0.04l-0.039-0.063l-0.063-0.081l-0.021-0.021l-0.081-0.103l0,0    l-0.084-0.081l-0.018-0.042l-0.063-0.062l-0.042-0.063l-0.038-0.041l-0.084-0.082l-0.021-0.021l-0.081-0.103v-0.021l-0.084-0.103    l-0.018-0.021l-0.063-0.081l-0.042-0.041l-0.038-0.062l-0.063-0.082l-0.021-0.021l-0.082-0.103l0,0l-0.102-0.104l-0.021-0.041    l-0.063-0.063l-0.042-0.061l-0.038-0.062l-0.063-0.083l-0.021-0.02l-0.082-0.104l0,0l-0.102-0.102l-0.021-0.042l-0.063-0.062    l-0.039-0.063l-0.041-0.061l-0.063-0.082l-0.021-0.021l-0.103-0.123l0,0l-0.081-0.102l-0.021-0.021l-0.063-0.082l-0.039-0.063    l-0.228-0.286l0,0l-0.102-0.104l-0.021-0.04l-0.06-0.083l-0.042-0.062l-0.042-0.041l-0.186-0.227l-3.696,10.765l-0.186,0.575    l-0.187,0.575l-0.203,0.575l-0.39,1.129l-0.207,0.576l-0.348,1.068l-0.042,0.123l-0.042,0.062    c-3.204,9.366-6.366,18.529-6.696,19.001l-0.021,0.021c-0.347,0.411-0.82,0.679-1.313,0.802c-2.322,1.334-7.211,3.985-10.476,5.71    c0.902,0.905,1.766,1.767,2.629,2.589l0.102,0.104l0.042,0.02c5.3,4.93,10.167,8.689,14.832,12.284    c3.614,2.773,7.105,5.464,10.577,8.524c5.442,4.664,8.731,8.197,11.669,12.1c2.565,3.164,5.177,6.779,7.906,10.99l0.783,1.232    c3.369,5.217,6.184,9.593,9.942,14.276l0.021,0.021l0.103,0.123c1.046,1.274,2.116,2.507,3.204,3.719v0.02l0.021,0.021    c1.54,1.644,4.189,4.479,6.365,6.8l0.043,0.04l0.042,0.021l0.06,0.082l0.042,0.041l0.021,0.021l2.484,2.526    c1.007,0.021,3.966-0.452,8.914-0.637c13.168-0.555,34.716-1.438,38.682-1.335c5.608,0.144,10.992,0.513,16.393,0.862    c3.349,0.227,6.718,0.452,10.045,0.617l-1.622-1.85c-10.416-11.955-28.861-33.093-34.326-36.421    c-1.909-1.171-4.067-2.3-6.163-3.39l-2.712-1.458l-5.258-2.731c-9.861-5.096-23.644-12.182-28.041-19.721l-0.677-1.13    c-9.266-15.839-10.396-17.77-24.731-30.793l-0.123-0.103c-1.253-1.15-2.404-2.198-3.471-3.184l-0.187-0.164l-0.042-0.042l0,0    l-1.396-1.335l-0.043-0.041l-0.512-0.492l-0.021-0.021l-0.123-0.123l-0.021-0.021l-0.123-0.122l-0.042-0.021l-0.102-0.122    l-0.06-0.042l-0.085-0.083l-0.08-0.081l-0.063-0.062l-0.081-0.104l-0.041-0.02l-0.123-0.123l-0.021-0.021l-0.123-0.123    l-0.021-0.021l-0.123-0.123l-0.042-0.021l-0.081-0.104l-0.063-0.061l-0.08-0.063l-0.081-0.082l-0.042-0.061l-0.102-0.104    l-0.042-0.021l-0.123-0.122v-0.021l-0.123-0.123l-0.021-0.021l-0.123-0.103l-0.043-0.041l-0.08-0.104l-0.063-0.063l-0.064-0.061    l-0.08-0.082l-0.063-0.041l-0.082-0.123l-0.041-0.021l-0.123-0.123l0,0l-0.123-0.123l-0.021-0.02l-0.144-0.166l-0.081-0.081    l-0.351-0.37l-0.021-0.021l-0.843-0.884h-0.018l-0.105-0.144h-0.021l-0.102-0.122l-0.039-0.042l-0.414-0.452l-0.102-0.102    l-0.043-0.042l-0.059-0.083l-0.064-0.041l-0.038-0.061l-0.084-0.083l-0.021-0.04l-0.204-0.207v-0.02l-0.351-0.369l-0.061-0.082    l-0.063-0.063l-0.039-0.063l-0.063-0.061L370.367,213.622z M356.853,214.978l0.165-0.534l0.183-0.533l0.186-0.535l0.351-1.047    l3.882-11.359c0.165-0.453,0.453-0.863,0.864-1.191c1.108-0.843,2.688-0.617,3.529,0.472l0.145,0.205l0.021,0.021l0.123,0.164    l0.063,0.063l0.08,0.123l0.085,0.104l0.06,0.102l0.105,0.123l0.039,0.063l0.122,0.143l0.021,0.042l0.145,0.185l0,0l0.145,0.186    l0.021,0.02l0.122,0.145l0.043,0.082l0.102,0.104l0.063,0.102l0.06,0.082l0.102,0.124l0.042,0.062l0.123,0.144l0.021,0.021    l0.123,0.186h0.021l0.123,0.164l0.021,0.041l0.123,0.144l0.042,0.062l0.081,0.103l0.084,0.083l0.06,0.082l0.084,0.123l0.039,0.041    l0.126,0.144v0.021l0.144,0.164v0.021l0.123,0.143l0.039,0.042l0.084,0.122l0.06,0.083l0.085,0.083l0.059,0.102l0.064,0.063    l0.08,0.123l0.042,0.041l0.123,0.144v0.021l0.122,0.144l0.021,0.021l0.102,0.145l0.043,0.041l0.08,0.103l0.063,0.082l0.063,0.082    l0.08,0.083l0.043,0.061l0.102,0.123l0.021,0.041l0.123,0.145l0,0l0.122,0.145l0.021,0.02l0.102,0.145l0.043,0.041l0.08,0.102    l0.063,0.063l0.06,0.082l0.084,0.103l0.043,0.042l0.08,0.122l0.021,0.021l0.123,0.145l0,0l0.122,0.145l0.021,0.02l0.102,0.123    l0.042,0.041l0.081,0.103l0.042,0.083l0.063,0.061l0.081,0.104l0.042,0.041l0.102,0.123v0.021l0.123,0.123v0.021l0.123,0.123    l0.021,0.021l0.08,0.123l0.063,0.041l0.063,0.082l0.06,0.082l0.063,0.063l0.08,0.103l0.021,0.041l0.102,0.103l0.021,0.021    l0.102,0.144h0.021l0.103,0.123l0.021,0.041l0.105,0.103l0.038,0.042l0.063,0.082l0.06,0.082l0.063,0.041l0.081,0.103l0.021,0.041    l0.021,0.021l0.225,0.246l0.105,0.124l0.021,0.041l0.08,0.081l0.064,0.063l0.038,0.041l0.084,0.104h0.021l0.082,0.123l0.041,0.041    l0.061,0.061l0.063,0.083l0.021,0.021l0.102,0.103l0.021,0.021l0.059,0.082l0.064,0.063l0.041,0.04l0.184,0.206l0.041,0.062    l0.063,0.042l0.081,0.102l0,0l0.102,0.104l0.021,0.041l0.08,0.061l0.063,0.082l0.021,0.021l0.103,0.123l0.084,0.102l0.06,0.042    l0.042,0.041l0.103,0.123l0.08,0.083l0.042,0.061l0.063,0.063l0.08,0.082l0.021,0.021l0.081,0.082l0.042,0.041l0.063,0.062    l0.061,0.082l0.042,0.021l0.081,0.104l0.021,0.021l0.084,0.082l0.06,0.062l0.043,0.041l0.08,0.103h0.021l0.084,0.104l0.039,0.041    l0.063,0.061l0.081,0.104h0.021l0.102,0.103l0.021,0.041l0.084,0.062l0.061,0.082l0.021,0.021l0.103,0.103l0.021,0.021    l0.084,0.082l0.06,0.061l0.043,0.041l0.102,0.104l0,0l0.102,0.102l0.042,0.042l0.063,0.062l0.08,0.082l0.021,0.021l0.102,0.103    l0.021,0.04l0.08,0.063l0.063,0.082l0.042,0.021l0.102,0.103l0.021,0.021l0.08,0.083l0.063,0.061l0.042,0.041l0.102,0.123l0,0    l0.204,0.207l0.105,0.081v0.021l0.122,0.104l0.021,0.041l0.081,0.061l0.081,0.082l0.021,0.021l0.105,0.103l0.018,0.021    l0.165,0.164l0.042,0.041l0.102,0.104h0.021l0.103,0.103l0.042,0.062l0.063,0.041l0.103,0.103l0,0l0.122,0.123l0.043,0.041    l0.06,0.062c1.088-1.211,2.015-2.608,2.713-4.107c0.965-2.096,1.499-4.438,1.499-6.924c0-4.498-1.787-8.586-4.703-11.545    l-0.123-0.144c-3.001-2.978-7.128-4.827-11.69-4.827c-4.499,0-8.587,1.787-11.563,4.685l-0.123,0.143c-3,3-4.85,7.129-4.85,11.688    c0,2.773,0.677,5.383,1.87,7.663c0.698,1.335,1.583,2.567,2.607,3.656L356.853,214.978z M293.829,127.058h6.738    c0.368-0.924,0.923-1.746,1.621-2.423c1.295-1.254,3.043-2.014,4.952-2.014h30.915c1.951,0,3.72,0.801,5.012,2.074    c1.315,1.314,2.116,3.102,2.116,5.033c0,1.973-0.801,3.738-2.096,5.032c-1.313,1.294-3.081,2.097-5.032,2.097h-6.738    c-0.368,0.924-0.923,1.746-1.621,2.423c-1.296,1.253-3.04,2.034-4.952,2.034h-30.915c-1.952,0-3.717-0.802-5.012-2.096    c-1.316-1.314-2.116-3.082-2.116-5.033s0.8-3.738,2.095-5.032C290.112,127.859,291.877,127.058,293.829,127.058z M248.535,172.928    c-1.07-0.883-1.193-2.465-0.309-3.533c0.881-1.068,2.485-1.191,3.534-0.307c0.06,0.039,20.867,16.68,21.607,26.046    c0.533,6.819,22.619,18.652,22.679,18.693c0.842,0.452,1.315,1.335,1.315,2.239l-0.329,24.158    c1.295,3.368,10.725,27.3,20.008,32.086c10.641,5.484,28.389,10.641,28.43,10.66c1.338,0.371,2.138,1.746,1.766,3.082    c-0.368,1.356-1.766,2.137-3.099,1.768c-0.063-0.021-18.365-5.362-29.417-11.031c-11.711-6.039-22.534-35.148-22.576-35.23    c-0.081-0.287-0.145-0.596-0.145-0.902l0.31-23.152c-5.117-2.875-23.317-13.701-23.974-21.979    C267.781,188.479,248.574,172.97,248.535,172.928z M365.623,170.607c0-1.397,1.13-2.527,2.526-2.527    c1.397,0,2.526,1.13,2.526,2.527v8.113c0,1.396-1.129,2.527-2.526,2.527c-1.396,0-2.526-1.131-2.526-2.527V170.607z     M397.401,186.033c1.193-0.677,2.733-0.266,3.433,0.926c0.698,1.211,0.287,2.752-0.927,3.45l-7.026,4.048    c-1.189,0.697-2.73,0.286-3.429-0.926c-0.698-1.191-0.288-2.731,0.923-3.43L397.401,186.033z M399.907,221.264    c1.193,0.699,1.625,2.239,0.927,3.431c-0.699,1.212-2.239,1.622-3.433,0.924l-7.026-4.046c-1.211-0.679-1.621-2.219-0.923-3.432    c0.678-1.191,2.218-1.623,3.429-0.924L399.907,221.264z M338.898,225.618c-1.211,0.698-2.752,0.288-3.43-0.924    c-0.698-1.191-0.287-2.731,0.924-3.431l7.025-4.047c1.189-0.699,2.73-0.268,3.429,0.924c0.678,1.213,0.267,2.753-0.944,3.432    L338.898,225.618z M336.371,190.409c-1.189-0.698-1.601-2.239-0.902-3.45c0.678-1.191,2.239-1.603,3.43-0.926l7.025,4.068    c1.189,0.698,1.601,2.238,0.923,3.43c-0.698,1.212-2.239,1.623-3.45,0.926L336.371,190.409z M381.381,177.899    c0.677-1.191,2.218-1.623,3.428-0.925c1.193,0.678,1.604,2.219,0.924,3.431l-2.484,4.293c-0.678,1.191-2.219,1.603-3.43,0.925    c-1.193-0.698-1.604-2.239-0.926-3.431L381.381,177.899z M398.963,203.311c1.376,0,2.527,1.129,2.527,2.525    c0,1.398-1.151,2.527-2.527,2.527h-4.951c-1.397,0-2.527-1.129-2.527-2.527c0-1.396,1.13-2.525,2.527-2.525H398.963z     M337.336,208.363c-1.396,0-2.526-1.129-2.526-2.527c0-1.396,1.13-2.525,2.526-2.525h4.952c1.376,0,2.526,1.129,2.526,2.525    c0,1.398-1.15,2.527-2.526,2.527H337.336z M350.566,180.405c-0.697-1.212-0.287-2.753,0.924-3.431    c1.193-0.698,2.734-0.267,3.432,0.925l2.464,4.293c0.698,1.191,0.288,2.732-0.923,3.431c-1.193,0.678-2.734,0.267-3.432-0.925    L350.566,180.405z M81.157,223.605c-1.744-3.492-10.518,0.78-10.536,0.801c-1.316,0.596-2.878,0-3.474-1.314    c-0.593-1.314,0-2.875,1.316-3.471c0.042-0.021,9.633-4.891,15.056-1.131c5.405-3.76,15.017,1.109,15.038,1.131    c1.316,0.596,1.909,2.156,1.316,3.471c-0.597,1.314-2.159,1.91-3.475,1.314c-0.018-0.021-8.792-4.293-10.536-0.801v0.02    l-0.021,0.042h-0.021l-0.021,0.062l0,0l-0.042,0.062l0,0l-0.018,0.041v0.021l-0.042,0.042l0,0l-0.042,0.062l0,0l-0.042,0.041l0,0    l-0.018,0.062h-0.021l-0.021,0.041h-0.021l-0.021,0.04l-0.021,0.021l-0.021,0.041h-0.018l-0.042,0.041v0.021l-0.042,0.021v0.021    l-0.042,0.042l0,0l-0.039,0.04h-0.021l-0.042,0.041l0,0l-0.042,0.041h-0.018l-0.021,0.042h-0.021l-0.042,0.041l0,0l-0.06,0.041    l0,0l-0.042,0.02l0,0l-0.063,0.042l0,0l-0.06,0.041l0,0l-0.042,0.021l-0.021,0.02l-0.039,0.021l0,0l-0.063,0.02v0.021    l-0.063,0.021l0,0l-0.039,0.021h-0.021l-0.042,0.021l-0.021,0.021h-0.039l-0.021,0.021h-0.042l-0.102,0.041H84.28l-0.042,0.02    h-0.021l-0.039,0.021h-0.021h-0.042l-0.021,0.021h-0.039h-0.021l-0.042,0.021h-0.021h-0.042h-0.018l-0.042,0.021h-0.021h-0.042    h-0.021h-0.039h-0.021l-0.042,0.021h-0.021h-0.039h-0.021H83.54l0,0h-0.06l0,0h-0.063l0,0h-0.06l0,0l-0.063-0.021h-0.021h-0.042    h-0.018h-0.042H83.15l-0.042-0.021h-0.021h-0.039h-0.021l-0.042-0.021h-0.021h-0.039l-0.021-0.021h-0.042h-0.021l-0.039-0.021    h-0.021l-0.042-0.02h-0.021l-0.102-0.041h-0.021l-0.042-0.021h-0.021l-0.039-0.021l-0.021-0.021h-0.042l-0.042-0.021l0,0    l-0.039-0.021l-0.021-0.021l-0.042-0.02h-0.021l-0.039-0.021v-0.02l-0.063-0.021l0,0l-0.063-0.041l0,0l-0.039-0.042h-0.021    l-0.042-0.02l0,0l-0.039-0.041h-0.021l-0.042-0.041l0,0l-0.042-0.042h-0.021l-0.039-0.041l0,0l-0.042-0.041h-0.021l-0.021-0.04    H81.69l-0.039-0.042v-0.021l-0.042-0.021v-0.021l-0.042-0.041l0,0l-0.039-0.041l-0.021-0.021l-0.021-0.04h-0.021l-0.021-0.041l0,0    l-0.042-0.062l0,0l-0.039-0.041l0,0l-0.042-0.062l0,0l-0.042-0.042v-0.021l-0.017-0.041l0,0l-0.042-0.062l0,0l-0.021-0.062l0,0    l-0.042-0.042V223.605z M103.2,207.869c-1.748-3.491-10.518,0.802-10.539,0.802c-1.316,0.596-2.874,0-3.471-1.314    c-0.597-1.313,0-2.876,1.313-3.472c0.042-0.02,9.637-4.889,15.059-1.129c5.401-3.76,15.018,1.109,15.039,1.129    c1.313,0.596,1.909,2.158,1.313,3.472c-0.597,1.314-2.155,1.91-3.471,1.314c-0.021,0-8.791-4.293-10.539-0.802v0.021l-0.021,0.041    l-0.021,0.021l-0.018,0.042l0,0l-0.042,0.061l0,0l-0.021,0.062l0,0l-0.042,0.042l0,0l-0.039,0.061l0,0l-0.021,0.041l-0.021,0.021    l-0.021,0.041h-0.021l-0.021,0.041l-0.018,0.021l-0.021,0.021l-0.021,0.02l-0.021,0.041h-0.021l-0.021,0.042l-0.021,0.021    l-0.039,0.021v0.021l-0.042,0.041l0,0l-0.042,0.041h-0.021l-0.018,0.041h-0.021l-0.042,0.042l0,0l-0.042,0.041h-0.021l-0.039,0.04    l0,0l-0.063,0.041l0,0l-0.042,0.042l0,0l-0.06,0.021l0,0l-0.063,0.041l0,0l-0.039,0.021V209l-0.063,0.02l0,0l-0.06,0.021v0.021    l-0.042,0.021h-0.021l-0.042,0.021h-0.021l-0.039,0.021l-0.021,0.021h-0.042l-0.021,0.021l-0.039,0.021l-0.084,0.02h-0.042    l-0.018,0.021h-0.042l-0.021,0.02h-0.021l-0.06,0.021h-0.021h-0.042l0,0l-0.06,0.021h-0.021h-0.042l-0.021,0.021h-0.042h-0.018    h-0.042h-0.021l-0.042,0.021h-0.021h-0.039h-0.021h-0.042h-0.021h-0.039h-0.021h-0.063l0,0h-0.06l0,0h-0.063l0,0h-0.06l0,0    l-0.063-0.021h-0.021h-0.042h-0.018h-0.042l-0.021-0.021h-0.042h-0.021l-0.039-0.021h-0.021h-0.042h-0.021l-0.039-0.021h-0.021    l-0.042-0.02h-0.021l-0.042-0.021h-0.018l-0.105-0.02l-0.018-0.021l-0.042-0.021h-0.021l-0.021-0.021l-0.042-0.021h-0.017    l-0.042-0.021h-0.021l-0.042-0.021l-0.021-0.021l-0.039-0.021h-0.021l-0.042-0.02v-0.021l-0.06-0.021l0,0l-0.063-0.041l0,0    l-0.042-0.021l0,0l-0.06-0.042l0,0L104,208.814h-0.021l-0.039-0.04l0,0l-0.042-0.041h-0.021l-0.042-0.042l0,0l-0.039-0.041h-0.021    l-0.021-0.041h-0.021l-0.021-0.041l-0.021-0.021l-0.039-0.021v-0.021l-0.042-0.042l0,0l-0.042-0.041v-0.02l-0.042-0.021v-0.021    l-0.039-0.041l0,0l-0.042-0.041v-0.021l-0.042-0.041l0,0l-0.039-0.061l0,0l-0.021-0.042l0,0l-0.042-0.062l0,0l-0.042-0.061l0,0    l-0.021-0.042v-0.021l-0.039-0.041V207.869z M311.475,344.27c-1.396,0-2.527-1.131-2.527-2.527s1.131-2.527,2.527-2.527h21.98    c1.375,0,2.506,1.131,2.506,2.527s-1.131,2.527-2.506,2.527H311.475z M455.904,354.006c1.397,0,2.527,1.15,2.527,2.526    c0,1.397-1.13,2.526-2.527,2.526h-90.671c-1.376,0-2.526-1.129-2.526-2.526c0-1.376,1.15-2.526,2.526-2.526H455.904z     M314.002,358.937c1.396,0,2.526,1.129,2.526,2.526c0,1.396-1.13,2.526-2.526,2.526h-39.339c-1.396,0-2.526-1.13-2.526-2.526    c0-1.397,1.13-2.526,2.526-2.526H314.002z M385.732,368.898c1.4,0,2.526,1.131,2.526,2.527c0,1.377-1.126,2.506-2.526,2.506    h-83.583c-1.379,0-2.526-1.129-2.526-2.506c0-1.396,1.147-2.527,2.526-2.527H385.732z M267.37,384.347    c1.376,0,2.527,1.13,2.527,2.506c0,1.397-1.151,2.526-2.527,2.526h-39.358c-1.397,0-2.527-1.129-2.527-2.526    c0-1.376,1.13-2.506,2.527-2.506H267.37z M165.792,349.897c1.396,0,2.527,1.13,2.527,2.526c0,1.397-1.13,2.527-2.527,2.527    h-19.127c-1.397,0-2.527-1.13-2.527-2.527c0-1.396,1.13-2.526,2.527-2.526H165.792z M133.15,338.004    c1.397,0,2.527,1.15,2.527,2.527c0,1.396-1.13,2.526-2.527,2.526H91.51c-1.397,0-2.527-1.13-2.527-2.526    c0-1.377,1.13-2.527,2.527-2.527H133.15z M149.852,365.57c1.397,0,2.523,1.131,2.523,2.527s-1.126,2.527-2.523,2.527H48.785    c-1.4,0-2.527-1.131-2.527-2.527s1.126-2.527,2.527-2.527H149.852z M67.579,295.338v9.717h-3.657v-9.614    c-4.661,0.329-9.304,1.397-13.968,3.102l-0.186,0.063l-0.06,0.041l-0.246,0.082l-0.516,0.185l-0.246,0.104l-1.007,0.41    l-0.246,0.103l0.144-0.349l0.021-0.063l0.021-0.041l2.794-6.922c0.491-1.212-0.063-2.609-1.232-3.185l3.162-7.806    c0.474-1.191-0.042-2.568-1.151-3.164l2.137-5.279c0.144-0.349,0.186-0.698,0.186-1.026l3.387-8.401    c6.412-3.02,7.623-5.711,9.206-10.744c1.562,4.951,2.976,8.114,9.037,10.785l1.892,4.643l0.018,0.041l0.021,0.061l0.351,0.885    l1.088,2.711v0.021v0.021v0.02l0,0v0.021v0.02v0.021l0,0v0.021v0.021v0.021v0.042v0.02h0.021v0.041l0,0v0.021l0,0v0.041v0.021l0,0    v0.021l0,0v0.02h0.021v0.021v0.02l0,0v0.021l0,0v0.041l0,0v0.02l0.021,0.021v0.021l0,0v0.021v0.021v0.021h0.018v0.02v0.021v0.021    l0,0l0.021,0.021v0.021v0.021v0.021l0,0l0.021,0.021v0.021v0.02l0,0l0.021,0.021v0.02v0.021v0.021h0.021v0.021v0.021v0.021h0.021    v0.02v0.021l2.053,5.053l-0.042,0.021h-0.021l-0.018,0.021l-0.021,0.021h-0.021l-0.042,0.02v0.021l-0.039,0.02l-0.042,0.021l0,0    l-0.042,0.021l-0.021,0.021l-0.021,0.021l-0.018,0.021l0,0L80.377,278l0,0l-0.042,0.041l0,0l-0.042,0.021v0.02l-0.039,0.021v0.021    l-0.021,0.021l-0.042,0.021l0,0l-0.042,0.042l0,0l-0.018,0.039l0,0l-0.042,0.021v0.021l-0.021,0.021l-0.021,0.021l-0.021,0.021    l-0.021,0.021v0.02l-0.039,0.021l-0.021,0.041l0,0l-0.042,0.04v0.021l-0.06,0.063v0.02l-0.021,0.021l-0.021,0.02v0.021    l-0.021,0.041l0,0l-0.021,0.041l0,0l-0.039,0.063l0,0l-0.021,0.039l0,0v0.021l-0.021,0.041l0,0l-0.021,0.021v0.021l-0.021,0.021    v0.02v0.021l-0.021,0.04l-0.021,0.021v0.021v0.021l-0.017,0.021v0.021l0,0l-0.021,0.062l0,0l-0.021,0.041l0,0v0.041l-0.021,0.021    v0.041v0.021l0,0l-0.021,0.041l0,0v0.041v0.021l-0.021,0.041v0.021l0,0v0.041l-0.021,0.021v0.02v0.021l0,0v0.041v0.021v0.021    v0.021v0.021v0.02l-0.018,0.021v0.02v0.021v0.062v0.021v0.021v0.021v0.02v0.021v0.062v0.041l0,0v0.021v0.021l0.018,0.02v0.021    v0.02v0.021v0.104l0,0l0.042,0.123v0.041l0,0l0.021,0.123l0.021,0.021v0.041l0,0l0.021,0.021v0.021v0.021l0.021,0.02v0.021v0.02    l0.017,0.041l0,0v0.021l0.021,0.021v0.021l3.145,7.764l0,0c-0.102,0.063-0.207,0.124-0.309,0.186l0,0l-0.186,0.145l0,0    l-0.039,0.041h-0.021l-0.021,0.02l-0.021,0.021l-0.021,0.021l-0.102,0.104l0,0l-0.042,0.041l0,0l-0.021,0.041l-0.039,0.041l0,0    l-0.042,0.041l0,0l-0.021,0.041l-0.021,0.02l-0.021,0.021v0.021l-0.018,0.021l-0.021,0.021l-0.021,0.021l-0.021,0.041l0,0    l-0.021,0.041l0,0l-0.042,0.041l0,0l-0.018,0.063l0,0l-0.021,0.041l0,0l-0.021,0.041l-0.021,0.02v0.021l-0.021,0.02v0.042    l-0.021,0.021l0,0l-0.021,0.041v0.021v0.02l-0.018,0.02l0,0l-0.021,0.042v0.021l0,0l-0.021,0.041l0,0v0.021l-0.021,0.041v0.041    l-0.021,0.02l0,0v0.041l0,0l-0.021,0.021v0.041l0,0v0.041l-0.021,0.02l0,0v0.041v0.021l0,0l-0.018,0.041l0,0v0.041v0.021l0,0    v0.039v0.021l0,0l-0.021,0.041v0.021v0.021v0.021v0.02v0.021v0.02v0.041v0.021v0.021v0.021v0.021v0.021v0.02v0.145v0.021v0.042    l0,0v0.04l0.021,0.062l0,0v0.021v0.042l0,0l0.018,0.041v0.061v0.021l0,0l0.021,0.042v0.021l0,0l0.021,0.04v0.021l0,0v0.041v0.021    l0.021,0.021v0.021l0,0l0.021,0.041v0.021l0,0l0.021,0.021v0.04l0,0l0.021,0.021v0.041l0,0l2.917,7.211    C78.816,296.611,73.208,295.42,67.579,295.338z M182.02,335.867h3.657v7.643h-3.657V335.867z M258.766,348.213h3.636v7.643h-3.636    V348.213z M170.884,247.557l-0.039,0.041l-0.042,0.227L170.884,247.557z" style="fill-rule:evenodd;clip-rule:evenodd;"/></g></g><g id="Layer_1"/></svg>